<svg width="168" height="48" viewBox="0 0 168 48" fill="none" xmlns="http://www.w3.org/2000/svg">
<path d="M14.8401 38.7428V43.3237C16.5233 43.773 18.2579 44.0004 20 44C21.742 44.0004 23.4766 43.7731 25.1596 43.3239V38.7428C21.8193 39.9122 18.1805 39.9122 14.8401 38.7428ZM25.1594 9.25619V4.67399C21.7784 3.77534 18.2212 3.77534 14.8401 4.67399V9.25619C16.4983 8.67523 18.2428 8.37872 19.9998 8.37918C21.7568 8.37872 23.5013 8.67523 25.1594 9.25619ZM34.743 29.1624H39.3238C39.7724 27.4791 39.9997 25.7446 40 24.0026C39.9998 22.2602 39.7725 20.5252 39.3238 18.8415H34.7419C35.3234 20.5001 35.6199 22.2451 35.619 24.0026C35.6196 25.7596 35.3234 27.504 34.743 29.1624ZM5.25702 18.8397H0.675057C0.226271 20.5232 -0.000666615 22.2581 1.93563e-06 24.0004C-0.000764657 25.7425 0.226175 27.4773 0.675057 29.1606H5.25702C4.67571 27.5024 4.37922 25.7578 4.38011 24.0006C4.3792 22.2432 4.67569 20.4983 5.25702 18.8397Z" fill="#FF0000"/>
<path d="M31.384 29.1623H25.1602V38.7429C25.9625 38.4624 26.7405 38.1168 27.4866 37.7097L30.6819 40.9046C33.1905 39.316 35.3158 37.1914 36.905 34.6835L33.7106 31.4875C34.1172 30.7417 34.4625 29.9641 34.7429 29.1623H31.384ZM14.8407 18.8412V9.25652C14.0382 9.53623 13.2602 9.88144 12.5143 10.2887L9.31895 7.09488C6.81006 8.68331 4.68436 10.8079 3.09473 13.3158L6.29006 16.5118C5.88211 17.2583 5.53683 18.0375 5.25778 18.8412H8.61535H14.8407ZM14.8407 29.1623H5.25822C5.53787 29.9647 5.88313 30.7428 6.2905 31.4886L3.09473 34.6835C4.68423 37.1914 6.80977 39.316 9.31851 40.9046L12.5141 37.7097C13.2602 38.1168 14.0383 38.4624 14.8407 38.7429V35.3843V29.1623ZM25.16 18.8412H34.7429C34.4631 18.0381 34.1178 17.2594 33.7106 16.5129L36.905 13.3158C35.3158 10.8079 33.1905 8.68336 30.6819 7.09488L27.4866 10.2887C26.7406 9.88143 25.9625 9.53622 25.16 9.25652V12.6138V18.8412Z" fill="#FF0000"/>
<path d="M44.6875 19.6162H58.1789C60.0871 19.6162 61.6352 20.3081 61.6361 22.1718L61.6371 26.0608C61.6379 27.9244 60.0918 28.6154 58.1836 28.6154L48.1327 28.6137C46.2243 28.6137 44.682 27.5589 44.6884 26.255L44.6987 24.1701C44.7322 23.5871 45.2719 23.0221 46.319 23.0221H56.6336C56.6336 23.0221 56.6354 22.8162 56.6392 22.5605C56.6419 22.3048 55.7601 22.098 54.6702 22.098H44.6875V19.6162ZM49.5386 25.3562C49.5386 25.3562 49.5386 25.5747 49.5378 25.8433C49.5378 26.1116 50.4213 26.3301 51.5112 26.3301L54.6581 26.3338C55.7491 26.3347 56.6345 26.1162 56.6354 25.8459L56.6373 25.3562H49.5386ZM79.7847 26.0611C79.7875 27.9238 78.2432 28.6137 76.3347 28.6137H66.4672C64.5588 28.6137 63.0118 27.9238 63.0118 26.0611V19.6165H68.1434L68.1546 25.2214C68.1573 26.2842 69.0437 26.3286 70.1346 26.3286H73.0409C74.1318 26.3286 75.0191 26.2842 75.0228 25.2214L75.0414 19.6165H79.7764L79.7847 26.0611ZM95.0964 28.6139H84.6144C82.706 28.6139 81.159 27.1049 81.159 25.2424V16.3078H86.0129L86.0026 19.6165H95.0962V21.928H86.0191L86.0045 26.2072L95.0962 26.2045L95.0964 28.6139ZM109.863 28.6139H99.9265C98.0181 28.6139 96.4709 27.9238 96.4709 26.0613V22.1709C96.4709 20.3076 98.0181 19.6165 99.9265 19.6165H109.853C111.762 19.6165 113.31 20.3076 113.313 22.1709L113.315 26.0613C113.317 27.9238 111.772 28.6139 109.863 28.6139ZM101.705 23.0363L101.707 25.0964C101.71 26.1609 102.597 26.2045 103.688 26.2045H106.116C107.206 26.2045 108.09 26.1609 108.09 25.0964V23.0361C108.09 21.9714 107.206 21.928 106.116 21.928H103.674C102.584 21.928 101.703 21.9716 101.705 23.0363ZM146.299 28.6139H136.362C134.454 28.6139 132.907 27.9238 132.907 26.0613V22.1709C132.907 20.3076 134.454 19.6165 136.362 19.6165H146.289C148.198 19.6165 149.746 20.3076 149.749 22.1709L149.751 26.0613C149.754 27.9238 148.208 28.6139 146.299 28.6139ZM138.142 23.0363L138.143 25.0964C138.146 26.1609 139.033 26.2045 140.123 26.2045H142.551C143.643 26.2045 144.526 26.1609 144.526 25.0964V23.0361C144.526 21.9714 143.643 21.928 142.551 21.928H140.11C139.02 21.928 138.138 21.9716 138.142 23.0363ZM131.533 16.3077H126.308V19.6165H118.144C116.236 19.6165 114.689 20.3074 114.689 22.1718V26.0611C114.689 27.9236 116.236 28.6137 118.144 28.6137H128.082C129.99 28.6137 131.535 27.9236 131.533 26.0611V16.3077ZM126.308 25.0961C126.308 26.1618 125.424 26.2042 124.333 26.2042H121.905C120.815 26.2042 119.928 26.1616 119.925 25.0961L119.924 23.0368C119.92 21.9721 120.802 21.9277 121.893 21.9277H124.333C125.424 21.9277 126.308 21.9721 126.308 23.0368V25.0961ZM160.77 26.2049H158.342C157.252 26.2049 156.365 26.1611 156.361 25.0968V23.0365C156.357 21.972 157.238 21.9283 158.329 21.9283H167.954L167.961 19.616H154.581C152.672 19.616 151.125 20.3079 151.125 22.1715V26.0616C151.125 27.9241 152.672 28.6142 154.581 28.6142H167.964L167.961 26.2049H160.77Z" fill="#1C1E21"/>
</svg>
