<svg width="200" height="48" viewBox="0 0 200 48" fill="none" xmlns="http://www.w3.org/2000/svg">
	<path d="M6.38949 42.72C2.12983 39.04 0 32.8 0 23.76C0 14.88 2.12983 8.64 6.38949 5.2C10.6491 1.76 17.3663 0 26.3771 0C35.5518 0 42.2689 1.76 46.5286 5.2C50.8702 8.64 53 14.8 53 23.76C53 32.8 50.8702 39.04 46.5286 42.64C42.3509 46.24 35.6337 48 26.3771 48C17.2844 48 10.5672 46.24 6.38949 42.72Z"
		  fill="#F50634"/>
	<path d="M78.0152 22.468C76.0805 22.9606 73.9422 23.2562 71.6003 23.2562C69.3602 23.2562 67.9346 23.0591 67.1201 22.5665C66.4073 22.0739 66 21.0887 66 19.7094C66 18.2315 66.4073 17.2463 67.3237 16.7537C68.2401 16.2611 69.2584 16.1626 70.9894 16.1626C71.6003 16.1626 72.7204 16.2611 74.1459 16.4581C74.0441 15.1773 73.9422 14.9803 70.9894 14.8818C69.6656 14.8818 68.2401 15.0788 66.9164 15.3744L66.4073 12.3202C68.1383 12.0246 70.0729 11.8276 72.3131 11.8276C76.386 11.8276 78.117 12.9113 78.117 16.064V22.468H78.0152ZM74.1459 18.7241C73.535 18.6256 72.8222 18.6256 72.1094 18.6256C71.2948 18.6256 70.7857 18.7241 70.5821 18.8227C70.3784 18.9212 70.2766 19.1182 70.2766 19.5123C70.2766 20.3005 70.4802 20.399 72.0076 20.399C72.6185 20.399 73.3313 20.3005 74.1459 20.202V18.7241ZM88.1976 11.9261H92.3723V22.2709C90.1322 22.8621 87.7903 23.2562 85.3465 23.2562C81.6809 23.2562 80.0517 21.7783 80.0517 18.0345V12.0246H84.2264V17.7389C84.2264 18.5271 84.3283 19.1182 84.6337 19.3153C84.9392 19.6108 85.5502 19.7094 86.4666 19.7094C86.6702 19.7094 87.2811 19.6108 88.2994 19.5123V11.9261H88.1976ZM101.74 19.8079C101.333 19.8079 100.926 19.9064 100.722 19.9064C99.1945 19.9064 98.6854 19.6108 98.6854 18.7241V15.2759H101.638C101.842 13.8966 102.351 12.8128 103.064 11.9261H98.6854V8.47783H94.5106V11.9261V15.2759V19.2167C94.5106 20.7931 94.9179 21.7783 95.6307 22.3695C96.3435 22.9606 97.4635 23.1576 98.9909 23.1576C100.111 23.1576 101.74 23.0591 103.064 22.7635C102.351 22.0739 101.944 20.9901 101.74 19.8079ZM146.237 19.8079C145.83 19.8079 145.423 19.9064 145.219 19.9064C143.691 19.9064 143.182 19.6108 143.182 18.7241V15.2759H146.135C146.339 13.8966 146.848 12.8128 147.561 11.9261H143.182V8.47783H139.008V11.9261V15.2759V19.2167C139.008 20.7931 139.415 21.7783 140.128 22.3695C140.84 22.9606 141.96 23.1576 143.488 23.1576C144.608 23.1576 146.237 23.0591 147.561 22.7635C146.95 22.0739 146.543 20.9901 146.237 19.8079ZM104.998 21.9754C103.98 21.0887 103.471 19.6108 103.471 17.4433C103.471 15.2759 103.98 13.798 104.998 13.0099C106.017 12.2217 107.646 11.7291 109.886 11.7291C112.126 11.7291 113.755 12.1232 114.774 13.0099C115.792 13.798 116.301 15.3744 116.301 17.4433C116.301 19.6108 115.792 21.0887 114.774 21.9754C113.755 22.8621 112.126 23.2562 109.886 23.2562C107.646 23.2562 106.017 22.7635 104.998 21.9754ZM108.053 19.7094C108.359 20.0049 108.97 20.202 109.886 20.202C110.802 20.202 111.413 20.0049 111.719 19.7094C112.024 19.4138 112.126 18.6256 112.126 17.4433C112.126 16.1626 112.024 15.4729 111.719 15.0788C111.413 14.7832 110.802 14.5862 109.886 14.5862C108.97 14.5862 108.359 14.7832 108.053 15.0788C107.748 15.3744 107.646 16.1626 107.646 17.4433C107.646 18.6256 107.748 19.4138 108.053 19.7094ZM118.439 27V12.3202C120.068 11.8276 122.003 11.6305 124.447 11.6305C126.789 11.6305 128.52 12.0246 129.436 12.8128C130.454 13.601 130.964 15.0788 130.964 17.2463C130.964 21.4828 129.436 23.1576 126.178 23.1576C124.854 23.1576 123.632 22.8621 122.512 22.3695V26.9015H118.439V27ZM122.614 19.4138C122.614 19.7094 123.53 20.0049 124.65 20.0049C125.669 20.0049 126.28 19.8079 126.483 19.5123C126.789 19.2167 126.891 18.5271 126.891 17.6404C126.891 16.3596 126.789 15.67 126.483 15.3744C126.178 15.0788 125.567 14.8818 124.447 14.8818C123.836 14.8818 123.123 14.9803 122.512 15.0788V19.4138H122.614ZM136.666 7.29557C136.971 7.49261 137.175 7.98522 137.175 8.7734C137.175 9.56158 136.971 10.1527 136.666 10.3498C136.36 10.6453 135.749 10.7438 134.833 10.7438C133.916 10.7438 133.305 10.6453 132.898 10.3498C132.593 10.0542 132.389 9.56158 132.389 8.7734C132.389 7.98522 132.593 7.49261 132.898 7.29557C133.204 7.09852 133.815 7 134.833 7C135.749 7 136.36 7.09852 136.666 7.29557ZM136.869 22.9606H132.695V11.9261H136.869V22.9606ZM159.372 22.665C158.049 23.0591 156.318 23.1576 154.383 23.1576C150.106 23.1576 147.866 21.1872 147.866 17.3448C147.866 15.2759 148.375 13.798 149.495 12.9113C150.514 12.0246 152.143 11.6305 154.078 11.6305C156.216 11.6305 157.54 11.8276 158.558 12.6158C159.678 13.4039 160.085 14.7832 160.085 17.0493C160.085 17.6404 160.085 18.133 159.983 18.7241H152.041C152.143 19.8079 152.754 20.1034 154.892 20.1034C156.114 20.1034 157.336 19.9064 158.558 19.6108L159.372 22.665ZM152.245 15.867H156.114C156.114 14.7833 155.605 14.4877 154.179 14.4877C152.754 14.4877 152.347 14.7833 152.245 15.867ZM162.223 22.9606V11.9261H166.398V13.2069C167.213 12.1232 168.435 11.6305 170.064 11.6305C170.267 11.6305 170.675 11.6305 171.082 11.6305V15.2759C170.777 15.1773 170.166 15.1773 169.351 15.1773C168.536 15.1773 167.824 15.2759 167.213 15.4729C166.602 15.67 166.296 15.867 166.296 16.1626V22.8621H162.223V22.9606ZM174.646 19.4138C174.951 19.6108 175.155 20.202 175.155 20.9901C175.155 21.8768 174.951 22.468 174.646 22.7635C174.34 23.0591 173.628 23.1576 172.711 23.1576C171.795 23.1576 171.184 23.0591 170.777 22.7635C170.471 22.468 170.267 21.8768 170.267 20.9901C170.267 20.202 170.471 19.6108 170.777 19.4138C171.082 19.1182 171.693 19.0197 172.711 19.0197C173.628 19.0197 174.239 19.1182 174.646 19.4138ZM177.497 22.9606V11.9261H181.672V13.2069C182.486 12.1232 183.708 11.6305 185.337 11.6305C185.541 11.6305 185.948 11.6305 186.356 11.6305V15.2759C186.05 15.1773 185.439 15.1773 184.625 15.1773C183.81 15.1773 183.097 15.2759 182.486 15.4729C181.875 15.67 181.57 15.867 181.57 16.1626V22.8621H177.497V22.9606ZM195.825 11.9261H200V22.2709C197.76 22.8621 195.418 23.2562 192.974 23.2562C189.309 23.2562 187.679 21.7783 187.679 18.0345V12.0246H191.854V17.7389C191.854 18.5271 191.956 19.1182 192.261 19.3153C192.567 19.6108 193.178 19.7094 194.094 19.7094C194.298 19.7094 194.909 19.6108 195.927 19.5123V11.9261H195.825Z"
		  fill="#2B2829"/>
	<path d="M29.0318 32.6454C25.6369 33.6016 21.9108 34 17.7707 34C13.879 34 11.3121 33.6016 9.98726 32.7251C8.66242 31.8486 8 30.1753 8 27.7052C8 25.0757 8.74522 23.4821 10.3185 22.6056C11.9745 21.7291 13.7134 21.5697 16.6115 21.5697C17.6879 21.5697 19.5924 21.7291 22.1592 22.0478C21.9936 19.8167 21.7452 19.498 16.6943 19.4183C14.3758 19.4183 11.9745 19.6574 9.57325 20.2151L8.66242 14.8765C11.6433 14.3187 15.121 14 18.9299 14C25.9682 14 28.949 15.992 28.949 21.4104V32.6454H29.0318ZM22.242 26.1912C21.0828 26.1116 19.9236 26.0319 18.5987 26.0319C17.2739 26.0319 16.3631 26.1116 15.949 26.3506C15.6178 26.51 15.3694 26.9084 15.3694 27.6255C15.3694 28.9801 15.7834 29.2191 18.4331 29.2191C19.5924 29.2191 20.8344 29.0598 22.1592 28.8207V26.1912H22.242ZM32.344 29.7769L39.2994 24.0398L32.344 18.2231L35.3248 14.0797L47 22.6056V25.3147L35.3248 33.9203L32.344 29.7769Z"
		  fill="white"/>
	<path d="M71.9103 29.6696C71.6046 29.7739 71.2989 29.7739 70.9932 29.7739C70.6875 29.7739 70.4836 29.8783 70.1779 29.8783C69.9741 29.8783 69.6684 29.9826 69.4646 30.087C69.2608 30.1913 68.9551 30.2957 68.7513 30.4C68.5475 30.5043 68.3437 30.713 68.2418 30.9217C68.038 31.1304 67.9361 31.4435 67.9361 31.7565C68.4456 31.4435 68.9551 31.3391 69.4646 31.3391C69.8722 31.3391 70.1779 31.4435 70.5856 31.5478C70.8913 31.6522 71.197 31.8609 71.5027 32.1739C71.7065 32.487 71.9103 32.8 72.1141 33.2174C72.216 33.6348 72.3179 34.0522 72.3179 34.5739C72.3179 35.2 72.216 35.6174 72.1141 36.0348C71.9103 36.4522 71.7065 36.7652 71.4008 37.0783C71.0951 37.3913 70.7893 37.6 70.3817 37.7043C69.9741 37.8087 69.5665 37.913 69.1589 37.913C68.038 37.913 67.2228 37.6 66.7133 36.8696C66.2038 36.1391 66 35.0957 66 33.7391C66 32.8 66.1019 32.0696 66.3057 31.4435C66.5095 30.8174 66.7133 30.2957 67.1209 29.8783C67.4266 29.4609 67.9361 29.1478 68.4456 28.8348C68.9551 28.6261 69.5665 28.4174 70.2798 28.2087C70.5855 28.1043 70.7894 28.1043 71.0951 28.1043C71.4008 28.1043 71.6046 28 71.9103 28V29.6696ZM67.8342 33.4261C67.8342 33.5304 67.8342 33.6348 67.8342 33.8435C67.8342 33.9478 67.8342 34.1565 67.8342 34.2609C67.8342 34.9913 67.9361 35.6174 68.1399 35.9304C68.3437 36.3478 68.6494 36.4522 69.1589 36.4522C69.5665 36.4522 69.8722 36.2435 70.076 35.9304C70.2798 35.6174 70.3817 35.2 70.3817 34.6783C70.3817 34.4696 70.3817 34.2609 70.2798 34.0522C70.2798 33.8435 70.1779 33.6348 70.076 33.5304C69.9741 33.4261 69.8722 33.2174 69.6684 33.113C69.4646 33.0087 69.3627 33.0087 69.1589 33.0087C68.9551 33.0087 68.7513 33.0087 68.4456 33.113C68.1399 33.2174 67.9361 33.3217 67.8342 33.4261ZM79.7567 34.5739C79.7567 35.0957 79.6547 35.6174 79.5528 36.0348C79.4509 36.4522 79.1452 36.8696 78.9414 37.1826C78.6357 37.4957 78.33 37.7043 77.9224 37.913C77.5148 38.1217 77.1072 38.1217 76.5977 38.1217C76.0882 38.1217 75.6806 38.0174 75.273 37.913C74.8654 37.7043 74.5597 37.4957 74.254 37.1826C73.9483 36.8696 73.7445 36.4522 73.6426 36.0348C73.4388 35.6174 73.4388 35.0957 73.4388 34.5739C73.4388 34.0522 73.5407 33.5304 73.6426 33.113C73.8464 32.6957 74.0502 32.2783 74.3559 31.9652C74.6616 31.6522 74.9673 31.4435 75.3749 31.2348C75.7825 31.0261 76.1901 31.0261 76.6996 31.0261C77.2091 31.0261 77.6167 31.1304 78.0243 31.2348C78.4319 31.4435 78.7376 31.6522 79.0433 31.9652C79.349 32.2783 79.5529 32.5913 79.6548 33.113C79.6548 33.6348 79.7567 34.0522 79.7567 34.5739ZM77.8205 34.5739C77.8205 33.9478 77.7186 33.5304 77.5148 33.2174C77.311 32.9043 77.0053 32.6957 76.4958 32.6957C76.0882 32.6957 75.7825 32.9043 75.4768 33.2174C75.273 33.5304 75.1711 34.0522 75.1711 34.5739C75.1711 35.2 75.273 35.6174 75.4768 35.9304C75.6806 36.2435 75.9863 36.4522 76.4958 36.4522C76.9034 36.4522 77.2091 36.2435 77.5148 35.9304C77.7186 35.6174 77.8205 35.2 77.8205 34.5739ZM84.1384 32.8C84.1384 33.0087 84.1384 33.3217 84.1384 33.5304C84.1384 33.8435 84.1384 34.0522 84.0365 34.3652C84.0365 34.6783 83.9346 34.887 83.9346 35.2C83.8327 35.513 83.8327 35.7217 83.7308 35.9304C83.6289 36.2435 83.527 36.4522 83.3232 36.6609C83.2213 36.8696 83.0175 37.0783 82.7118 37.287C82.508 37.4957 82.2023 37.6 81.8966 37.7043C81.5909 37.8087 81.1833 37.913 80.7757 37.913L80.5719 36.3478C80.9795 36.2435 81.2852 36.1391 81.5909 36.0348C81.7947 35.9304 81.9985 35.7217 82.1004 35.4087C82.2023 35.2 82.3042 34.9913 82.3042 34.6783C82.4061 34.3652 82.4061 34.1565 82.4061 33.8435C82.4061 33.5304 82.4061 33.2174 82.4061 32.9043C82.4061 32.5913 82.4061 32.2783 82.4061 31.9652V31.2348H87.2973V37.913H85.4631V32.8H84.1384ZM90.8639 33.6348C90.9658 33.6348 91.1696 33.5304 91.2715 33.5304C91.4753 33.5304 91.6791 33.5304 91.8829 33.5304C92.2905 33.5304 92.5962 33.5304 93.0038 33.6348C93.3095 33.7391 93.6152 33.8435 93.9209 34.0522C94.1247 34.2609 94.3285 34.4696 94.5323 34.7826C94.6342 35.0957 94.7361 35.4087 94.7361 35.8261C94.7361 36.2435 94.6342 36.5565 94.5323 36.8696C94.4304 37.1826 94.2266 37.3913 93.9209 37.6C93.7171 37.8087 93.4114 37.913 93.0038 38.0174C92.6981 38.1217 92.2905 38.1217 91.8829 38.1217C91.3734 38.1217 90.8639 38.1217 90.3544 38.0174C89.9468 37.913 89.4373 37.913 88.9278 37.8087V31.3391H90.762V33.6348H90.8639ZM91.781 36.6609C92.0867 36.6609 92.3924 36.5565 92.5962 36.4522C92.8 36.3478 92.9019 36.1391 92.9019 35.8261C92.9019 35.7217 92.9019 35.513 92.8 35.4087C92.6981 35.3043 92.5962 35.2 92.4943 35.2C92.3924 35.0957 92.2905 35.0957 92.0867 35.0957C91.9848 35.0957 91.781 35.0957 91.5772 35.0957C91.4753 35.0957 91.2715 35.0957 91.1696 35.0957C91.0677 35.0957 90.8639 35.0957 90.8639 35.0957V36.6609C90.9658 36.6609 91.0677 36.6609 91.2715 36.6609C91.4753 36.6609 91.6791 36.6609 91.781 36.6609ZM95.9589 37.913V31.2348H97.7932V36.3478H99.5255V31.2348H101.36V36.3478H103.092V31.2348H104.926V37.913H95.9589ZM106.353 34.6783C106.353 34.0522 106.455 33.5304 106.659 33.113C106.862 32.6957 107.066 32.2783 107.372 31.9652C107.678 31.6522 107.983 31.4435 108.391 31.3391C108.798 31.2348 109.104 31.1304 109.512 31.1304C110.429 31.1304 111.142 31.4435 111.754 31.9652C112.263 32.5913 112.569 33.4261 112.569 34.5739C112.569 34.6783 112.569 34.7826 112.569 34.887C112.569 34.9913 112.569 35.0957 112.569 35.2H108.391C108.391 35.6174 108.595 35.9304 108.9 36.1391C109.206 36.3478 109.614 36.4522 110.123 36.4522C110.429 36.4522 110.836 36.4522 111.142 36.3478C111.448 36.2435 111.754 36.2435 111.957 36.1391L112.161 37.7043C112.059 37.7043 111.957 37.8087 111.754 37.8087C111.55 37.8087 111.448 37.913 111.244 37.913C111.04 37.913 110.836 38.0174 110.633 38.0174C110.429 38.0174 110.123 38.0174 109.919 38.0174C109.308 38.0174 108.798 37.913 108.391 37.7043C107.983 37.4957 107.576 37.287 107.27 36.9739C106.964 36.6609 106.76 36.3478 106.659 35.8261C106.455 35.6174 106.353 35.0957 106.353 34.6783ZM110.633 33.9478C110.633 33.7391 110.633 33.6348 110.531 33.4261C110.531 33.3217 110.429 33.113 110.327 33.0087C110.225 32.9043 110.123 32.8 109.919 32.6957C109.817 32.5913 109.614 32.5913 109.41 32.5913C109.206 32.5913 109.002 32.5913 108.9 32.6957C108.798 32.8 108.595 32.9043 108.493 33.0087C108.391 33.113 108.289 33.2174 108.289 33.4261C108.187 33.5304 108.187 33.7391 108.187 33.9478H110.633ZM115.626 36.0348C115.626 36.2435 115.626 36.3478 115.626 36.4522C115.626 36.5565 115.626 36.5565 115.626 36.6609C115.626 36.8696 115.626 37.1826 115.524 37.4957C115.524 37.8087 115.422 38.0174 115.32 38.3304C115.218 38.6435 115.116 38.9565 115.014 39.1652C114.913 39.3739 114.709 39.687 114.607 40L113.18 39.5826C113.384 39.0609 113.486 38.5391 113.588 38.0174C113.69 37.4957 113.69 37.0783 113.69 36.7652C113.69 36.7652 113.69 36.6609 113.69 36.5565C113.69 36.4522 113.69 36.3478 113.69 36.3478C113.69 36.2435 113.69 36.1391 113.69 36.1391C113.69 36.0348 113.69 36.0348 113.69 36.0348H115.626ZM121.536 31.2348V33.4261C121.536 33.7391 121.638 33.9478 121.842 34.0522C122.046 34.1565 122.351 34.2609 122.657 34.2609C122.759 34.2609 122.861 34.2609 122.963 34.2609C123.167 34.2609 123.268 34.2609 123.37 34.2609V31.3391H125.205V37.913H123.37V35.7217C123.167 35.7217 123.065 35.7217 122.861 35.8261C122.657 35.8261 122.555 35.8261 122.453 35.8261C122.046 35.8261 121.638 35.8261 121.332 35.7217C121.027 35.6174 120.721 35.513 120.415 35.3043C120.211 35.0957 120.008 34.887 119.804 34.5739C119.702 34.2609 119.6 33.8435 119.6 33.4261V31.2348H121.536ZM126.733 34.6783C126.733 34.0522 126.835 33.5304 127.039 33.113C127.243 32.6957 127.446 32.2783 127.752 31.9652C128.058 31.6522 128.363 31.4435 128.771 31.3391C129.179 31.2348 129.484 31.1304 129.892 31.1304C130.809 31.1304 131.522 31.4435 132.134 31.9652C132.643 32.5913 132.949 33.4261 132.949 34.5739C132.949 34.6783 132.949 34.7826 132.949 34.887C132.949 34.9913 132.949 35.0957 132.949 35.2H128.771C128.771 35.6174 128.975 35.9304 129.281 36.1391C129.586 36.3478 129.994 36.4522 130.503 36.4522C130.809 36.4522 131.217 36.4522 131.522 36.3478C131.828 36.2435 132.134 36.2435 132.338 36.1391L132.541 37.7043C132.44 37.7043 132.338 37.8087 132.134 37.8087C131.93 37.8087 131.828 37.913 131.624 37.913C131.421 37.913 131.217 38.0174 131.013 38.0174C130.809 38.0174 130.503 38.0174 130.3 38.0174C129.688 38.0174 129.179 37.913 128.771 37.7043C128.363 37.4957 127.956 37.287 127.65 36.9739C127.344 36.6609 127.141 36.3478 127.039 35.8261C126.733 35.6174 126.733 35.0957 126.733 34.6783ZM131.013 33.9478C131.013 33.7391 131.013 33.6348 130.911 33.4261C130.911 33.3217 130.809 33.113 130.707 33.0087C130.605 32.9043 130.503 32.8 130.3 32.6957C130.198 32.5913 129.994 32.5913 129.79 32.5913C129.586 32.5913 129.383 32.5913 129.281 32.6957C129.179 32.8 128.975 32.9043 128.873 33.0087C128.771 33.113 128.669 33.2174 128.669 33.4261C128.567 33.5304 128.567 33.7391 128.567 33.9478H131.013ZM136.108 34.0522C136.108 34.3652 136.108 34.6783 136.108 34.9913C136.108 35.3043 136.108 35.7217 136.108 36.0348C136.108 36.3478 136.108 36.7652 136.108 37.0783C136.108 37.3913 136.108 37.7043 136.108 37.913H134.274C134.274 37.4957 134.274 36.9739 134.376 36.3478C134.376 35.7217 134.478 35.2 134.478 34.5739C134.478 33.9478 134.579 33.4261 134.579 32.8C134.681 32.1739 134.681 31.7565 134.783 31.2348H136.312C136.617 31.8609 137.025 32.487 137.331 33.113C137.636 33.7391 137.942 34.4696 138.248 35.2C138.554 34.3652 138.961 33.6348 139.267 32.9043C139.573 32.1739 139.878 31.6522 140.184 31.2348H141.713C141.814 31.6522 141.814 32.1739 141.916 32.8C142.018 33.4261 142.018 33.9478 142.018 34.5739C142.018 35.2 142.12 35.8261 142.12 36.3478C142.12 36.9739 142.222 37.4957 142.222 37.913H140.388C140.388 37.287 140.388 36.5565 140.286 35.9304C140.286 35.3043 140.184 34.6783 140.184 34.0522L138.859 37.1826H137.433L136.108 34.0522ZM146.298 31.4435C146.604 31.3391 146.91 31.2348 147.317 31.1304C147.725 31.0261 148.132 31.0261 148.54 31.0261C148.846 31.0261 149.253 31.0261 149.559 31.1304C149.865 31.2348 150.17 31.3391 150.374 31.4435C150.578 31.5478 150.782 31.7565 150.986 32.0696C151.087 32.2783 151.189 32.5913 151.189 33.0087C151.189 33.3217 151.087 33.6348 150.986 33.8435C150.884 34.0522 150.578 34.2609 150.374 34.4696C150.782 34.6783 150.986 34.887 151.189 35.0957C151.393 35.4087 151.495 35.7217 151.495 36.1391C151.495 36.5565 151.393 36.8696 151.291 37.0783C151.087 37.287 150.884 37.4957 150.68 37.7043C150.374 37.913 150.068 38.0174 149.763 38.0174C149.457 38.1217 149.049 38.1217 148.744 38.1217C148.54 38.1217 148.336 38.1217 148.03 38.1217C147.827 38.1217 147.623 38.1217 147.317 38.0174C147.113 38.0174 146.91 37.913 146.706 37.913C146.502 37.8087 146.298 37.8087 146.196 37.7043L146.502 36.2435C146.706 36.3478 146.91 36.3478 147.317 36.4522C147.725 36.5565 148.132 36.5565 148.54 36.5565C149.253 36.5565 149.661 36.3478 149.661 35.9304C149.661 35.8261 149.661 35.7217 149.559 35.6174C149.457 35.513 149.457 35.4087 149.355 35.4087C149.253 35.4087 149.151 35.3043 149.049 35.3043C148.948 35.3043 148.846 35.3043 148.642 35.3043H147.215V33.9478H148.642C148.948 33.9478 149.151 33.8435 149.253 33.7391C149.355 33.6348 149.457 33.4261 149.457 33.3217C149.457 33.113 149.355 33.0087 149.253 32.9043C149.151 32.8 148.846 32.6957 148.54 32.6957C148.132 32.6957 147.827 32.6957 147.521 32.8C147.215 32.9043 146.91 32.9043 146.706 33.0087L146.298 31.4435ZM155.265 31.1304C155.775 31.1304 156.284 31.2348 156.59 31.3391C156.998 31.4435 157.202 31.6522 157.507 31.8609C157.711 32.0696 157.915 32.3826 158.017 32.6957C158.119 33.0087 158.119 33.4261 158.119 33.8435V37.8087C157.813 37.913 157.507 37.913 156.998 38.0174C156.488 38.1217 155.979 38.1217 155.265 38.1217C154.858 38.1217 154.45 38.1217 154.144 38.0174C153.839 37.913 153.533 37.8087 153.227 37.6C153.024 37.3913 152.82 37.1826 152.616 36.8696C152.514 36.5565 152.412 36.2435 152.412 35.8261C152.412 35.4087 152.514 35.0957 152.616 34.887C152.82 34.5739 153.024 34.3652 153.227 34.2609C153.533 34.0522 153.737 33.9478 154.144 33.9478C154.45 33.8435 154.858 33.8435 155.163 33.8435C155.367 33.8435 155.571 33.8435 155.775 33.8435C155.979 33.8435 156.081 33.8435 156.183 33.9478V33.7391C156.183 33.4261 156.081 33.113 155.877 33.0087C155.673 32.8 155.367 32.6957 154.858 32.6957C154.552 32.6957 154.246 32.6957 153.941 32.8C153.635 32.8 153.329 32.9043 153.125 33.0087L152.922 31.4435C153.024 31.4435 153.125 31.3391 153.329 31.3391C153.533 31.3391 153.635 31.2348 153.839 31.2348C154.043 31.2348 154.246 31.1304 154.45 31.1304C154.858 31.1304 155.062 31.1304 155.265 31.1304ZM155.367 36.6609C155.571 36.6609 155.673 36.6609 155.877 36.6609C156.081 36.6609 156.183 36.6609 156.284 36.6609V35.2C156.183 35.2 156.081 35.2 155.979 35.2C155.877 35.2 155.673 35.2 155.571 35.2C155.367 35.2 155.265 35.2 155.062 35.2C154.858 35.2 154.756 35.3043 154.654 35.3043C154.552 35.4087 154.45 35.4087 154.348 35.513C154.246 35.6174 154.246 35.7217 154.246 35.9304C154.246 36.2435 154.348 36.4522 154.552 36.5565C154.756 36.5565 155.062 36.6609 155.367 36.6609ZM165.456 31.2348V37.913H163.621V32.8H161.685V37.913H159.851V31.2348H165.456ZM168.716 31.2348V33.4261C168.716 33.7391 168.818 33.9478 169.022 34.0522C169.226 34.1565 169.532 34.2609 169.837 34.2609C169.939 34.2609 170.041 34.2609 170.143 34.2609C170.347 34.2609 170.449 34.2609 170.551 34.2609V31.3391H172.385V37.913H170.551V35.7217C170.347 35.7217 170.245 35.7217 170.041 35.8261C169.837 35.8261 169.735 35.8261 169.633 35.8261C169.226 35.8261 168.818 35.8261 168.513 35.7217C168.207 35.6174 167.901 35.513 167.595 35.3043C167.392 35.0957 167.188 34.887 166.984 34.5739C166.882 34.2609 166.78 33.8435 166.78 33.4261V31.2348H168.716ZM176.563 31.1304C177.072 31.1304 177.582 31.2348 177.887 31.3391C178.295 31.4435 178.499 31.6522 178.805 31.8609C179.008 32.0696 179.212 32.3826 179.314 32.6957C179.416 33.0087 179.416 33.4261 179.416 33.8435V37.8087C179.11 37.913 178.805 37.913 178.295 38.0174C177.786 38.1217 177.276 38.1217 176.563 38.1217C176.155 38.1217 175.748 38.1217 175.442 38.0174C175.136 37.913 174.83 37.8087 174.525 37.6C174.321 37.3913 174.117 37.1826 173.913 36.8696C173.811 36.5565 173.71 36.2435 173.71 35.8261C173.71 35.4087 173.811 35.0957 173.913 34.887C174.117 34.5739 174.321 34.3652 174.525 34.2609C174.83 34.0522 175.034 33.9478 175.442 33.9478C175.748 33.8435 176.155 33.8435 176.461 33.8435C176.665 33.8435 176.868 33.8435 177.072 33.8435C177.276 33.8435 177.378 33.8435 177.48 33.9478V33.7391C177.48 33.4261 177.378 33.113 177.174 33.0087C176.97 32.8 176.665 32.6957 176.155 32.6957C175.849 32.6957 175.544 32.6957 175.238 32.8C174.932 32.8 174.627 32.9043 174.423 33.0087L174.219 31.4435C174.321 31.4435 174.423 31.3391 174.627 31.3391C174.83 31.3391 174.932 31.2348 175.136 31.2348C175.34 31.2348 175.544 31.1304 175.748 31.1304C176.155 31.1304 176.359 31.1304 176.563 31.1304ZM176.767 36.6609C176.97 36.6609 177.072 36.6609 177.276 36.6609C177.48 36.6609 177.582 36.6609 177.684 36.6609V35.2C177.582 35.2 177.48 35.2 177.378 35.2C177.276 35.2 177.072 35.2 176.97 35.2C176.767 35.2 176.665 35.2 176.461 35.2C176.359 35.2 176.155 35.3043 176.053 35.3043C175.951 35.4087 175.849 35.4087 175.748 35.513C175.646 35.6174 175.646 35.7217 175.646 35.9304C175.646 36.2435 175.748 36.4522 175.951 36.5565C176.155 36.5565 176.359 36.6609 176.767 36.6609ZM180.843 34.5739C180.843 34.0522 180.944 33.6348 181.046 33.2174C181.148 32.8 181.454 32.3826 181.76 32.0696C182.065 31.7565 182.371 31.5478 182.779 31.3391C183.186 31.1304 183.696 31.0261 184.205 31.0261C184.511 31.0261 184.919 31.0261 185.122 31.1304C185.428 31.2348 185.734 31.2348 185.938 31.4435L185.53 32.9043C185.326 32.8 185.122 32.8 184.919 32.6957C184.715 32.6957 184.511 32.5913 184.205 32.5913C183.696 32.5913 183.288 32.8 182.982 33.113C182.677 33.4261 182.575 33.9478 182.575 34.4696C182.575 35.0957 182.677 35.513 182.982 35.8261C183.186 36.1391 183.696 36.3478 184.307 36.3478C184.511 36.3478 184.817 36.3478 185.021 36.2435C185.326 36.2435 185.53 36.1391 185.734 36.0348L186.04 37.6C185.836 37.7043 185.53 37.8087 185.224 37.8087C184.919 37.913 184.511 37.913 184.205 37.913C183.594 37.913 183.084 37.8087 182.677 37.6C182.269 37.3913 181.862 37.1826 181.658 36.8696C181.352 36.5565 181.148 36.1391 181.046 35.7217C180.843 35.6174 180.843 35.0957 180.843 34.5739ZM192.867 32.8H190.829V37.913H188.995V32.8H186.957V31.2348H192.969V32.8H192.867ZM200 31.2348V37.913H198.166C198.166 37.4957 198.166 37.0783 198.166 36.6609C198.166 36.2435 198.166 35.8261 198.166 35.513C198.166 35.2 198.166 34.887 198.166 34.5739C198.166 34.2609 198.166 34.1565 198.166 33.9478C197.962 34.2609 197.656 34.6783 197.452 34.9913C197.249 35.3043 196.943 35.7217 196.739 36.0348C196.535 36.3478 196.332 36.6609 196.128 36.9739C195.924 37.287 195.72 37.6 195.618 37.8087H193.988V31.1304H195.822C195.822 31.5478 195.822 31.9652 195.822 32.3826C195.822 32.8 195.822 33.113 195.822 33.4261C195.822 33.7391 195.822 34.0522 195.822 34.2609C195.822 34.4696 195.822 34.6783 195.822 34.7826C196.332 34.0522 196.739 33.3217 197.147 32.8C197.554 32.1739 197.962 31.6522 198.37 31.2348H200Z"
		  fill="#F50634"/>
</svg>
